<svg width="24" height="24" viewBox="0 0 24 24" fill="none" xmlns="http://www.w3.org/2000/svg">
<path d="M9.29181 18.3629L3.63605 12.7069C3.54288 12.6141 3.46872 12.5037 3.41827 12.3822C3.36782 12.2607 3.34213 12.1305 3.3421 11.9989C3.34226 11.8676 3.36832 11.7376 3.41876 11.6162C3.46921 11.4949 3.543 11.3848 3.63605 11.292L9.29181 5.63504C9.38468 5.54206 9.49512 5.4682 9.61652 5.41788C9.73791 5.36755 9.86791 5.34171 9.99933 5.34171C10.1307 5.34171 10.2612 5.36755 10.3826 5.41788C10.504 5.4682 10.614 5.54206 10.7068 5.63504C10.7998 5.72791 10.8738 5.83811 10.9241 5.9595C10.9745 6.0809 11.0003 6.21102 11.0003 6.34244C11.0003 6.47385 10.9745 6.60397 10.9241 6.72537C10.8738 6.84677 10.7998 6.95708 10.7068 7.04996L6.75714 11H19.9988C20.2641 11 20.5188 11.1053 20.7064 11.2929C20.8939 11.4804 20.9988 11.7348 20.9988 12C20.9988 12.2652 20.8939 12.5195 20.7064 12.7071C20.5188 12.8946 20.2641 13 19.9988 13H6.75714L10.7068 16.95C10.894 17.1375 10.9993 17.3916 10.9993 17.6565C10.9993 17.9214 10.894 18.1755 10.7068 18.3629C10.6139 18.4559 10.5036 18.5297 10.3821 18.58C10.2607 18.6303 10.1303 18.6561 9.99884 18.656C9.73365 18.656 9.4793 18.5505 9.29181 18.3629Z" fill="#18171A"/>
</svg>
